<svg id="Ebene_1" data-name="Ebene 1" xmlns="http://www.w3.org/2000/svg" viewBox="0 0 1804 194"><defs><style>.cls-1{fill:none;stroke-miterlimit:10;stroke-width:45px;}.cls-1,.cls-2{stroke:#50795c;}.cls-2{fill:#50795c;stroke-linecap:round;stroke-linejoin:round;stroke-width:20px;}</style></defs><path class="cls-1" d="M.5,217.5c76.24,0,162.76-92,258.17-59.25S427,239.63,522.45,239.63s242.27-202,457.41-170.25,232.92,121.61,318,138.44,110.38-28.06,218.88-63.6c145.68-47.73,191.32,73.28,279.72,73.28"/><path class="cls-2" d="M103.11,98.07c9.07,33.62.46,56.3-10.53,71.29S53.19,197.61,38.2,186.62s-10.89-42.06.1-57.05S69.67,102.56,103.11,98.07Z"/><path class="cls-2" d="M427.62,124.7c-2.79,34.7-18.54,53.15-33.94,63.56s-46.6,13.32-57-2.07,3.92-43.28,19.31-53.69S394.62,117.65,427.62,124.7Z"/><path class="cls-2" d="M613.51,71.72c28.83,19.53,37.13,42.32,38.6,60.85s-11.36,47.12-29.89,48.59-35.73-24.72-37.2-43.25S591.12,97,613.51,71.72Z"/><path class="cls-2" d="M965.86,155.54c-33.69,8.78-56.3,0-71.19-11.14s-27.91-39.63-16.79-54.53,42.15-10.53,57,.58S961.66,122.06,965.86,155.54Z"/><path class="cls-2" d="M1184.14,21.33c-8.5,33.77-27.08,49.36-44,57.08s-48.17,5.43-55.89-11.48,11-42,27.93-49.75S1152.76,8.93,1184.14,21.33Z"/><path class="cls-2" d="M1469.23,61c14,31.87,8.94,55.58.34,72.06s-34.68,33.86-51.16,25.25-17.11-39.93-8.5-56.41S1436.85,70.43,1469.23,61Z"/><path class="cls-2" d="M1791.86,121.16c-14.83,31.5-36.06,43.23-54.14,47.55s-48.31-3.94-52.63-22,18.9-39.13,37-43.45S1763.45,103,1791.86,121.16Z"/></svg>