<svg id="Ebene_2" data-name="Ebene 2" xmlns="http://www.w3.org/2000/svg" viewBox="0 0 1000 1000"><defs><style>.cls-1{fill:none;stroke:#1d1d1b;stroke-miterlimit:10;stroke-width:25px;}</style></defs><path class="cls-1" d="M437.92,304.47a204.31,204.31,0,0,1,124.16,0c29.94-22.25,49.66-59.33,49.66-98.07,0-61.71-68.41-193.17-111.74-193.17S388.26,144.69,388.26,206.4C388.26,245.14,408,282.22,437.92,304.47Z"/><path class="cls-1" d="M562.08,695.53a204.31,204.31,0,0,1-124.16,0c-29.94,22.25-49.66,59.33-49.66,98.07,0,61.71,68.41,193.17,111.74,193.17S611.74,855.31,611.74,793.6C611.74,754.86,592,717.78,562.08,695.53Z"/><path class="cls-1" d="M638.29,348.48A204.12,204.12,0,0,1,700.37,456c34.24,14.8,76.21,13.34,109.76-6,53.45-30.86,133.09-155.83,111.42-193.35s-169.71-31-223.16-.19C664.85,275.8,642.59,311.42,638.29,348.48Z"/><path class="cls-1" d="M361.71,651.52A204.12,204.12,0,0,1,299.63,544c-34.24-14.8-76.21-13.34-109.76,6C136.42,580.89,56.78,705.86,78.45,743.38s169.71,31,223.16.19C335.15,724.2,357.41,688.58,361.71,651.52Z"/><path class="cls-1" d="M299.63,456a204.12,204.12,0,0,1,62.08-107.52c-4.3-37.06-26.56-72.68-60.1-92.05-53.45-30.85-201.5-37.34-223.16.19s58,162.49,111.42,193.35C223.42,469.34,265.39,470.8,299.63,456Z"/><path class="cls-1" d="M700.37,544a204.12,204.12,0,0,1-62.08,107.52c4.3,37.06,26.56,72.68,60.1,92.05,53.45,30.85,201.5,37.34,223.16-.19S863.58,580.89,810.13,550C776.58,530.66,734.61,529.2,700.37,544Z"/><circle class="cls-1" cx="500" cy="500" r="207.76"/><path class="cls-1" d="M456,299.63l0,0c-3.06.67-6.1,1.42-9.11,2.23C449.93,301,453,300.29,456,299.63Z"/><path class="cls-1" d="M348.44,361.7h0c2.09-2.31,4.25-4.56,6.45-6.78Q351.62,358.23,348.44,361.7Z"/><path class="cls-1" d="M301.61,256.43c33.53,19.36,55.78,55,60.09,92a204.5,204.5,0,0,1,76.19-44c-29.92-22.25-49.63-59.32-49.63-98,0-18,5.83-42,15.16-66.84-49.8-41-120.23-76.46-146.8-61.11s-31.08,94.06-20.48,157.69C262.35,240.5,286,247.43,301.61,256.43Z"/><path class="cls-1" d="M651.56,361.7q-3.18-3.46-6.49-6.77c2.2,2.22,4.36,4.47,6.45,6.78Z"/><path class="cls-1" d="M611.74,206.4c0,38.73-19.71,75.8-49.63,98a204.5,204.5,0,0,1,76.19,44c4.31-37,26.56-72.65,60.09-92,15.6-9,39.26-15.93,65.47-20.29,10.6-63.63,6.1-142.35-20.48-157.69s-97,20.12-146.8,61.11C605.91,164.44,611.74,188.39,611.74,206.4Z"/><path class="cls-1" d="M553.1,301.83c-3-.81-6.05-1.56-9.11-2.23l0,0C547,300.29,550.07,301,553.1,301.83Z"/><path class="cls-1" d="M695.53,562.08l0,0c.94-3,1.81-6,2.61-9C697.34,556.14,696.47,559.12,695.53,562.08Z"/><path class="cls-1" d="M860.44,403.42C843.55,423.94,825.73,441,810.13,450c-33.53,19.36-75.49,20.83-109.73,6a204.39,204.39,0,0,1,0,88c34.24-14.79,76.2-13.32,109.73,6,15.6,9,33.42,26,50.31,46.55,60.4-22.64,126.33-65.89,126.33-96.58S920.84,426.06,860.44,403.42Z"/><path class="cls-1" d="M695.53,437.92c.94,2.95,1.81,5.93,2.63,8.94q-1.2-4.5-2.61-9Z"/><path class="cls-1" d="M544,700.37l0,0c3-.67,6.08-1.42,9.08-2.23C550.06,699,547,699.71,544,700.37Z"/><path class="cls-1" d="M651.56,638.3h0c-2.09,2.31-4.25,4.56-6.45,6.78Q648.39,641.77,651.56,638.3Z"/><path class="cls-1" d="M698.39,743.57c-33.53-19.36-55.78-55-60.09-92a204.5,204.5,0,0,1-76.19,44c29.92,22.25,49.63,59.32,49.63,98.05,0,18-5.83,42-15.16,66.84,49.8,41,120.23,76.46,146.8,61.11s31.08-94.06,20.48-157.69C737.65,759.5,714,752.57,698.39,743.57Z"/><path class="cls-1" d="M388.26,793.6c0-38.73,19.71-75.8,49.63-98.05a204.5,204.5,0,0,1-76.19-44c-4.31,37-26.56,72.65-60.09,92-15.6,9-39.26,15.93-65.47,20.29-10.6,63.63-6.1,142.35,20.48,157.69s97-20.12,146.8-61.11C394.09,835.56,388.26,811.61,388.26,793.6Z"/><path class="cls-1" d="M446.93,698.17c3,.81,6,1.56,9.08,2.23l0,0C453,699.71,449.94,699,446.93,698.17Z"/><path class="cls-1" d="M354.93,645.07c-2.2-2.22-4.36-4.47-6.45-6.78h0Q351.62,641.77,354.93,645.07Z"/><path class="cls-1" d="M304.47,437.92l0,0q-1.41,4.47-2.61,9C302.66,443.85,303.53,440.87,304.47,437.92Z"/><path class="cls-1" d="M304.47,562.08c-.94-3-1.81-5.94-2.63-9,.8,3,1.67,6,2.61,9Z"/><path class="cls-1" d="M189.87,550c33.53-19.36,75.49-20.83,109.73-6a204.39,204.39,0,0,1,0-88c-34.24,14.79-76.2,13.32-109.73-6-15.6-9-33.42-26-50.31-46.55C79.16,426.06,13.23,469.31,13.23,500s65.93,73.94,126.33,96.58C156.45,576.06,174.27,559,189.87,550Z"/></svg>