<svg id="Ebene_6" data-name="Ebene 6" xmlns="http://www.w3.org/2000/svg" viewBox="0 0 1000 1000"><defs><style>.cls-1,.cls-2{fill:none;stroke:#1d1d1b;stroke-linecap:round;stroke-width:25px;}.cls-1{stroke-miterlimit:10;}.cls-2{stroke-linejoin:round;}</style></defs><path class="cls-1" d="M186.31,897.22a89.55,89.55,0,0,1-179.1,0"/><path class="cls-1" d="M992.79,897.22a89.55,89.55,0,0,1-89.55,89.55"/><line class="cls-1" x1="7.21" y1="250.29" x2="7.21" y2="897.22"/><line class="cls-1" x1="96.76" y1="124.53" x2="96.76" y2="897.22"/><line class="cls-1" x1="186.31" y1="13.23" x2="186.31" y2="897.22"/><line class="cls-1" x1="992.79" y1="13.23" x2="992.79" y2="897.22"/><line class="cls-1" x1="7.21" y1="250.29" x2="96.76" y2="250.29"/><line class="cls-1" x1="96.76" y1="124.53" x2="186.31" y2="124.53"/><line class="cls-1" x1="186.31" y1="13.23" x2="992.79" y2="13.23"/><line class="cls-1" x1="96.76" y1="986.77" x2="903.24" y2="986.77"/><rect class="cls-2" x="287.97" y="149.12" width="603.16" height="133.73"/><rect class="cls-2" x="287.97" y="388.36" width="301.58" height="387.36"/><line class="cls-2" x1="689.74" y1="381.42" x2="891.13" y2="381.42"/><line class="cls-2" x1="689.74" y1="480" x2="891.13" y2="480"/><line class="cls-2" x1="689.74" y1="578.57" x2="891.13" y2="578.57"/><line class="cls-2" x1="689.74" y1="677.15" x2="891.13" y2="677.15"/><line class="cls-2" x1="689.74" y1="775.72" x2="891.13" y2="775.72"/><line class="cls-2" x1="287.97" y1="874.3" x2="891.13" y2="874.3"/></svg>