<svg xmlns="http://www.w3.org/2000/svg" viewBox="0 0 1000 1000"><defs><style>.cls-1,.cls-2{fill:none;stroke:#1d1d1b;stroke-linecap:round;stroke-width:25px;}.cls-1{stroke-miterlimit:10;}.cls-2{stroke-linejoin:round;}</style></defs><g id="Ebene_3" data-name="Ebene 3"><path class="cls-1" d="M449.45,63.72A50.55,50.55,0,1,1,500,114.27"/><line class="cls-1" x1="500" y1="114.27" x2="500" y2="187.46"/><path class="cls-2" d="M775.38,987.06H224.62V486.46l-69.38,64.42L36.48,375.29,224.62,242.83l176.31-50.89s64.73-4.48,99.07-4.48,99.07,4.48,99.07,4.48l176.31,50.89L963.52,375.29,844.76,550.88l-69.38-64.42Z"/><path class="cls-2" d="M599.07,191.94s-64.73-4.48-99.07-4.48-99.07,4.48-99.07,4.48L375,199.42c7.42,49.83,60.54,88.49,125,88.49s117.58-38.66,125-88.49Z"/></g></svg>